<svg width="832" height="216" viewBox="0 0 832 216" fill="none" xmlns="http://www.w3.org/2000/svg">
<g clip-path="url(#clip0_947_279)">
<path d="M77.44 185.952V106.08H74.496L19.712 182.24V116.576C19.712 113.376 21.504 112.096 24.704 111.84H32V108H3.84V111.84H9.984C14.336 112.096 14.592 114.784 14.592 118.496V181.728C14.592 188 15.744 189.664 8.064 189.664H3.84V193.504H37.632L73.6 142.816V185.952C73.6 188.512 68.352 189.664 65.152 189.664H61.568V193.504H88.576V189.664H83.2C79.488 189.664 77.44 188.512 77.44 185.952ZM119.127 108H92.631V111.84C95.703 111.84 101.335 111.712 102.743 115.552L132.951 195.424H137.943L169.687 111.84H177.367V108H136.791V111.84H146.647L139.735 131.936H113.495L110.167 122.72C108.759 118.88 107.607 115.168 107.607 114.016C107.607 110.816 117.335 111.84 119.127 111.84V108ZM126.807 167.136L115.159 135.776H138.199L126.807 167.136ZM192.982 111.84V189.664H183.382V193.504H230.998C253.27 193.504 270.806 173.92 270.806 151.392C270.806 122.464 250.71 110.176 233.942 108.64C229.718 108.256 225.366 108 221.014 108H183.382V111.84H192.982ZM214.486 189.664V111.84H226.646C237.782 111.84 242.646 116.576 244.822 123.744C245.974 127.456 246.23 131.68 246.23 136.416V166.496C246.23 176.608 244.822 179.936 243.798 182.112C241.366 187.488 236.886 189.664 226.646 189.664H214.486ZM356.863 108H282.495V111.84H292.735V189.664H283.647V193.504H353.663L354.431 170.464H350.079C344.703 184.928 339.071 189.664 326.271 189.664H314.239V153.952C326.783 153.952 329.471 157.664 332.031 169.44H336.255V133.088H332.031C330.239 145.376 326.783 149.472 314.239 149.472V111.84H326.783C346.623 111.84 350.207 121.184 353.663 136.032H357.631L356.863 108ZM366.078 189.664V193.504H408.446V189.664H397.694V127.712C397.694 115.936 400.638 110.048 415.102 109.92C425.214 109.792 430.846 114.656 433.534 118.368C436.478 121.568 436.478 131.424 436.478 141.92V184.928C436.478 187.488 434.43 189.664 430.718 189.664H424.958V193.504H451.966V189.664H444.286C441.342 189.664 440.318 187.488 440.318 184.928V132.32C440.318 125.792 439.806 119.136 435.326 114.272C430.59 109.024 423.166 106.08 408.574 106.08C387.582 106.08 376.19 113.376 376.19 134.112V189.664H366.078ZM528.981 108H458.325V111.84H467.029V189.664H458.325V193.504H500.053V189.664H488.533V111.84H502.869C517.333 111.84 522.709 123.872 526.677 136.032H530.261L528.981 108ZM626.559 189.664V111.84H637.183V108H594.559V111.84H605.951V189.024H605.695L580.735 108H576.127L551.679 189.28H551.423V119.52C551.423 111.072 556.031 111.84 563.455 111.84V108H536.191V111.84C543.231 111.84 547.583 111.072 547.583 119.52V189.664H536.191V193.504H572.159L587.007 141.92L602.495 193.504H637.183V189.664H626.559ZM671.36 163.168V141.664C671.36 115.04 672.256 109.92 689.792 109.92C707.328 109.92 708.352 115.04 708.352 141.664V163.168C708.352 186.464 703.872 191.584 689.792 191.584C675.712 191.584 671.36 186.464 671.36 163.168ZM689.792 195.424C706.56 195.424 733.696 180.704 733.696 151.648C733.696 126.432 714.88 106.08 689.792 106.08C664.832 106.08 646.016 126.432 646.016 151.648C646.016 180.704 673.152 195.424 689.792 195.424ZM807.977 189.024L812.329 193.504H816.809V168.8H812.329C808.873 181.984 799.401 191.584 789.545 191.584C778.921 191.584 774.185 185.696 772.009 177.76C770.985 173.92 770.729 169.44 770.729 165.088V139.232C770.729 131.68 770.729 123.36 773.289 116.448C775.465 110.688 779.561 109.92 786.857 109.92C795.305 109.92 798.889 114.272 798.889 120.672V136.8H787.881V140.64H828.841V136.8H821.161V123.616C821.161 121.696 814.377 115.168 812.841 113.888C807.721 109.664 801.321 106.08 785.833 106.08C763.433 106.08 745.641 127.2 745.641 149.472C745.641 174.944 766.377 195.424 788.137 195.424C795.177 195.424 802.217 192.864 807.977 189.024Z" fill="url(#paint0_linear_947_279)" style="mix-blend-mode:multiply"/>
<path d="M77.44 30.048V109.92H74.496L19.712 33.76V99.424C19.712 102.624 21.504 103.904 24.704 104.16H32V108H3.84V104.16H9.984C14.336 103.904 14.592 101.216 14.592 97.504V34.272C14.592 28 15.744 26.336 8.064 26.336H3.84V22.496H37.632L73.6 73.184V30.048C73.6 27.488 68.352 26.336 65.152 26.336H61.568V22.496H88.576V26.336H83.2C79.488 26.336 77.44 27.488 77.44 30.048ZM119.127 108H92.631V104.16C95.703 104.16 101.335 104.288 102.743 100.448L132.951 20.576H137.943L169.687 104.16H177.367V108H136.791V104.16H146.647L139.735 84.064H113.495L110.167 93.28C108.759 97.12 107.607 100.832 107.607 101.984C107.607 105.184 117.335 104.16 119.127 104.16V108ZM126.807 48.864L115.159 80.224H138.199L126.807 48.864ZM192.982 104.16V26.336H183.382V22.496H230.998C253.27 22.496 270.806 42.08 270.806 64.608C270.806 93.536 250.71 105.824 233.942 107.36C229.718 107.744 225.366 108 221.014 108H183.382V104.16H192.982ZM214.486 26.336V104.16H226.646C237.782 104.16 242.646 99.424 244.822 92.256C245.974 88.544 246.23 84.32 246.23 79.584V49.504C246.23 39.392 244.822 36.064 243.798 33.888C241.366 28.512 236.886 26.336 226.646 26.336H214.486ZM356.863 108H282.495V104.16H292.735V26.336H283.647V22.496H353.663L354.431 45.536H350.079C344.703 31.072 339.071 26.336 326.271 26.336H314.239V62.048C326.783 62.048 329.471 58.336 332.031 46.56H336.255V82.912H332.031C330.239 70.624 326.783 66.528 314.239 66.528V104.16H326.783C346.623 104.16 350.207 94.816 353.663 79.968H357.631L356.863 108ZM366.078 26.336V22.496H408.446V26.336H397.694V88.288C397.694 100.064 400.638 105.952 415.102 106.08C425.214 106.208 430.846 101.344 433.534 97.632C436.478 94.432 436.478 84.576 436.478 74.08V31.072C436.478 28.512 434.43 26.336 430.718 26.336H424.958V22.496H451.966V26.336H444.286C441.342 26.336 440.318 28.512 440.318 31.072V83.68C440.318 90.208 439.806 96.864 435.326 101.728C430.59 106.976 423.166 109.92 408.574 109.92C387.582 109.92 376.19 102.624 376.19 81.888V26.336H366.078ZM528.981 108H458.325V104.16H467.029V26.336H458.325V22.496H500.053V26.336H488.533V104.16H502.869C517.333 104.16 522.709 92.128 526.677 79.968H530.261L528.981 108ZM626.559 26.336V104.16H637.183V108H594.559V104.16H605.951V26.976H605.695L580.735 108H576.127L551.679 26.72H551.423V96.48C551.423 104.928 556.031 104.16 563.455 104.16V108H536.191V104.16C543.231 104.16 547.583 104.928 547.583 96.48V26.336H536.191V22.496H572.159L587.007 74.08L602.495 22.496H637.183V26.336H626.559ZM671.36 52.832V74.336C671.36 100.96 672.256 106.08 689.792 106.08C707.328 106.08 708.352 100.96 708.352 74.336V52.832C708.352 29.536 703.872 24.416 689.792 24.416C675.712 24.416 671.36 29.536 671.36 52.832ZM689.792 20.576C706.56 20.576 733.696 35.296 733.696 64.352C733.696 89.568 714.88 109.92 689.792 109.92C664.832 109.92 646.016 89.568 646.016 64.352C646.016 35.296 673.152 20.576 689.792 20.576ZM807.977 26.976L812.329 22.496H816.809V47.2H812.329C808.873 34.016 799.401 24.416 789.545 24.416C778.921 24.416 774.185 30.304 772.009 38.24C770.985 42.08 770.729 46.56 770.729 50.912V76.768C770.729 84.32 770.729 92.64 773.289 99.552C775.465 105.312 779.561 106.08 786.857 106.08C795.305 106.08 798.889 101.728 798.889 95.328V79.2H787.881V75.36H828.841V79.2H821.161V92.384C821.161 94.304 814.377 100.832 812.841 102.112C807.721 106.336 801.321 109.92 785.833 109.92C763.433 109.92 745.641 88.8 745.641 66.528C745.641 41.056 766.377 20.576 788.137 20.576C795.177 20.576 802.217 23.136 807.977 26.976Z" fill="#333333"/>
</g>
<defs>
<linearGradient id="paint0_linear_947_279" x1="450" y1="196.542" x2="449.476" y2="105.398" gradientUnits="userSpaceOnUse">
<stop offset="0.365385" stop-color="white" stop-opacity="0"/>
<stop offset="0.899038" stop-color="#2E6790" stop-opacity="0.8"/>
</linearGradient>
<clipPath id="clip0_947_279">
<rect width="832" height="216" fill="white"/>
</clipPath>
</defs>
</svg>
